<svg width="92" height="92" viewBox="0 0 92 92" fill="none" xmlns="http://www.w3.org/2000/svg">
<path d="M34.5 65.1667V69C34.5 72.05 35.7116 74.9751 37.8683 77.1317C40.025 79.2884 42.9501 80.5 46 80.5C49.05 80.5 51.9751 79.2884 54.1318 77.1317C56.2884 74.9751 57.5 72.05 57.5 69V65.1667M38.3334 19.1667C38.3334 17.1333 39.1411 15.1833 40.5789 13.7455C42.0167 12.3077 43.9667 11.5 46 11.5C48.0334 11.5 49.9834 12.3077 51.4212 13.7455C52.859 15.1833 53.6667 17.1333 53.6667 19.1667C58.0689 21.2483 61.8217 24.4886 64.5229 28.5403C67.2241 32.592 68.7717 37.3024 69 42.1667V53.6667C69.2885 56.0499 70.1325 58.3321 71.4642 60.3295C72.7958 62.3269 74.5778 63.9838 76.6667 65.1667H15.3334C17.4223 63.9838 19.2043 62.3269 20.5359 60.3295C21.8675 58.3321 22.7116 56.0499 23 53.6667V42.1667C23.2284 37.3024 24.776 32.592 27.4772 28.5403C30.1783 24.4886 33.9311 21.2483 38.3334 19.1667Z" stroke="black" stroke-width="7.66667" stroke-linecap="round" stroke-linejoin="round"/>
</svg>
